<?xml version="1.0" encoding="utf-8"?>
<!-- Generator: Adobe Illustrator 22.0.1, SVG Export Plug-In . SVG Version: 6.00 Build 0)  -->
<svg version="1.1" id="Layer_1" xmlns="http://www.w3.org/2000/svg" xmlns:xlink="http://www.w3.org/1999/xlink" x="0px" y="0px"
	 viewBox="0 0 2000 2000" style="enable-background:new 0 0 2000 2000;" xml:space="preserve">
<style type="text/css">
	.st0{fill:none;}
	.st1{fill:#ED1A1A;}
	.st2{fill:#8CC63F;}
</style>
<g>
	<polygon class="st0" points="1117.7,244.3 1117.7,244.3 1117.7,244.3 	"/>
	<path class="st1" d="M1706.1,718.7c-3.2-36.4-9.6-68.5-19.4-98.1c-10.6-32.4-25.6-63-44.4-91.1c-6-8.7-12.6-17.6-19.8-26.5
		c-6.3-11.6-14.7-21.3-24.3-27.7c-8.2-8.6-16.5-16.7-24.8-24.2c-15.9-14.6-34.2-29.8-56-46.2c-9.2-7-18.7-14-29.1-21.4l-22.7-16.1
		l-3.7-2.6c-6.3-4.4-12.8-9-19-12.9c-5.9-4.1-12.2-7.7-18.3-11.2c-1.6-0.9-3.2-1.8-4.7-2.7c-2.6-1.5-5.4-2.9-7.6-4l-0.1-0.1
		l-0.1,0.1c-4.2,2.3-8.3,4.6-12.5,6.9c-6.1,3.4-12.4,6.9-18.6,10.3c-20.5,11.2-38.4,19-54.5,23.8c-16.4,5.1-33.6,8.2-51.2,9.4
		c-5,0.3-10,0.5-15,0.5c-26.5,0-46.8-4.5-59.1-8.3c-9.8-3-18.2-6.5-22.4-9.3l-0.8-0.5l0.5,1c0.1,0.1,0.1,0.3,0.2,0.4
		c1,2.1,1.6,5.4,1.8,9.7c-0.1,5.8-1,10.9-2.9,15.6c-2.2,6.1-5.7,12.4-10.1,18.2c-8.9,11.6-22.5,23.2-39.4,33.6
		c-17,10.5-34.9,20.4-53.2,29.3l-11.1,5.3l-9.4,4.3l-10.6,4.7l-20.4,8.7l-9.9,4.1l-4.9,2l-3.5,1.4l12.4-23.2l5.9-11.3
		c0.9-1.6,1.5-3.1,2.1-4.5l2.4-5.7l2-4.9c0.3-0.8,0.6-1.6,0.9-2.5l0.5-1.3c0.2-0.6,0.4-1.1,0.6-1.7c0.3-0.9,0.7-1.9,1-2.9
		c1.1-3.4,1.9-6.2,2.6-9c3.3-12.3,4.6-23.4,5.3-31.7c0.5-6.1,0.7-11.5,0.9-15.9c0.2-4.4,0.3-7.8,0.6-10.3l0.1-1l-0.8,1.1
		c-0.2,0.2-0.4,0.5-0.6,0.8c-1.7,2.2-4.9,5.8-10.5,10.8c-8.4,7.7-23,19.6-44.8,32.5c-11.4,6.6-23.5,12.7-35.9,18.1
		c-13.1,5.7-26.6,10.6-40,14.5c-7.7,2.3-16,4.4-24.5,6.2c-7.8,1.7-15.7,3.1-23.3,4.3c-7,1.1-14.2,2-21.1,2.8
		c-9.6,1.2-19.5,2.5-29.1,4.1c-10.3,1.8-19.1,3.8-26.8,6.3l-1.9,0.6c-0.4,0.1-0.8,0.2-1.8,0.7l-8.9,3.6c-0.3,0.1-0.6,0.2-0.8,0.3
		c-0.7,0.3-1.4,0.5-2.3,1.1l-7.1,4.1c-2.5,1.4-5.4,3.1-9.1,5.3c-3.3,2-6.6,4-9.8,6c-3.3,2-6.4,3.9-9.2,5.6l4.7-17l2.6-9.2l2.8-8.9
		c0.6-1.8,1.1-3.6,1.7-5.3c0.5-1.7,1-3.3,1.6-5c0.7-2.1,1.5-4.6,2.6-7.2l3.2-7c0.3-0.6,0.5-1.1,0.8-1.7c0.5-1,1-2.1,1.5-3.1
		c5.8-11.2,13.1-21.8,22.3-32.7c6.5-7.6,14.1-14.9,23.9-22.8c0.2-0.2,0.5-0.4,0.7-0.6c0.3-0.2,0.6-0.5,0.9-0.7
		c9.1-6.8,17.3-11.9,24.9-15.7l-0.1-0.5h-0.2c-16.8,0-33.7-2.3-50.3-6.9c-10.9-3-21.6-7-31.9-11.9c-10.7-5-21.3-11.1-31.2-16.8
		l-1.6-0.9l-0.1,0.1c-2.2,1.1-4.5,2.3-6.8,3.6c-1.6,0.9-3.2,1.8-4.7,2.7c-6.1,3.5-12.4,7.1-18.3,11.2c-6.2,3.9-12.7,8.5-19.1,12.9
		l-3.7,2.6l-22.7,16.1c-24.4,17.5-56.2,41.1-85,67.6c-26.3,23.8-49.5,50.2-68.9,78.4c-18.8,28.1-33.8,58.7-44.4,91.1
		c-9.8,29.6-16.1,61.7-19.4,98.1c-2.6,29.9-2.7,62.2-0.1,98.8c0.7,13.1,2.2,26.3,3.7,39.1c0.4,3.2,0.7,6.3,1.1,9.4
		c0.7,5.1,1.5,10.4,2.2,15.4c0.4,2.9,0.9,5.7,1.3,8.6c1,7.2,2.3,15.6,3.9,23.7c10.1,56.1,24.8,115.4,45.2,181.2
		c34.1,110,76.7,214.7,126.8,311.1c24.9,48,51.8,94.1,80,137c68.8,104.8,146.1,190.9,217.6,242.6c52.9,39.1,95.5,54.4,116.3,59.9
		c1.4,0.4,2.7,0.7,4,1.1c2.2,0.6,4.2,1.2,6.3,1.7l9.1,1.8l7.8,1.6l6.4,0.8c9.9,1.3,11.3,2,11.5,2.2l0.2,0l0.3,0
		c0.1-0.2,1.6-0.9,11.5-2.2l6.5-0.8l7.7-1.6l9.1-1.8c2-0.4,4.1-1,6.3-1.7c1.3-0.4,2.6-0.8,4-1.1c20.7-5.6,63.4-20.8,116.3-59.9
		c43.8-31.7,90.8-77.1,135.8-131.4c49.2-59.4,95.9-128.4,138.6-205.2c8.1-14.5,15.9-29,23.1-43c50-96.4,92.7-201.1,126.8-311.1
		c20.4-65.8,35.1-125.1,45.2-181.2c1.6-8.1,2.9-16.5,3.9-23.7c0.4-2.9,0.9-5.7,1.3-8.6c0.8-5,1.6-10.2,2.2-15.4
		c0.3-3.1,0.7-6.3,1.1-9.5c1.5-12.8,3-26,3.7-39.1C1708.7,780.9,1708.7,748.6,1706.1,718.7z M1053.9,584c0.1,0,0.3,0,0.4,0
		c9.4,0.5,16.5,21.1,16.2,46.8c-0.4,25.7-8.1,46.1-17.5,46.4l-0.2,0c-2.2,0-4.3-1.1-6.4-3.1c-7-7.1-11.6-24.7-11.3-43.7
		C1035.4,605.2,1044,584,1053.9,584z M1038.7,1775.4c0.6-7.3,2.5-13.7,5.7-19c3.4-5.4,7.3-8.5,11.7-9.2c0.5-0.1,1-0.1,1.4-0.1
		c4.4,0,8.7,3,11.7,8.1c3.6,5.9,5.3,14.5,4.6,22.9c-1.3,15.8-9.8,28.2-19.3,28.2c-0.3,0-0.6,0-0.9,0c-3.1-0.2-6-1.9-8.5-4.8
		C1040.4,1795.6,1037.9,1785.7,1038.7,1775.4z M1077.1,1403.1c-0.3,11.4-2.8,22.5-7.1,30.5c-3.7,7-8.4,10.9-12.8,10.9
		c-0.3,0-0.7,0-1-0.1c-9-1.4-15-18.7-14.5-42.1c0.6-23.4,7.3-40.5,16.3-41.5c0.2,0,0.4,0,0.7,0c4.5,0,9.1,4.2,12.6,11.5
		C1075.3,1380.5,1077.4,1391.7,1077.1,1403.1z M1075.9,1020.5c-1.4,23.7-10.8,43.7-20.4,43.7c-0.2,0-0.5,0-0.7,0
		c-9.4-0.9-15.7-21.1-14.2-45.8c1.5-24.5,10-43.8,19.4-43.8l0.1,0c2.2,0,4.4,1.2,6.4,3.4C1073.3,985.2,1077,1002.2,1075.9,1020.5z
		 M1334.7,1558.9c1.8-2.8,3.8-5.4,6.3-8c3.9-4.1,8.3-7.8,13.4-8l0.3,0c5,0,9.3,5.2,10.8,12.9c0.8,4,0.8,8.8-0.1,14.1
		c-0.8,4.8-2.3,9.8-4.4,14.6c-3.5,8-7.6,14.4-12.7,19.8c-3.8,3.8-8.3,7.8-13.5,7.8l-0.1,0c-5,0-9.3-5.3-10.7-13.1
		c-0.7-4-0.7-8.7,0.2-14c0.8-4.7,2.3-9.7,4.4-14.5C1330.3,1566.3,1332.4,1562.4,1334.7,1558.9z M1223.2,1472.2
		c1.3-5.7,3.1-10.9,4.8-15.5l0.3-0.7c3.1-8.3,6.8-17.8,10.7-25.1c4.3-7.9,8.3-11.7,12.6-11.9c0.1,0,0.2,0,0.4,0
		c4.9,0,9.4,5.2,11.8,13.7c3,10.2,2.1,23.5-2.4,35.6c-2.4,6.5-5.2,11.3-7.8,15.5c-2.4,3.8-4.5,6.5-6.4,9.2c-2,2.6-3.8,4.8-5.6,6.7
		c-1.7,1.8-3.6,3.7-6,4.5c-0.6,0.2-1.3,0.3-1.9,0.3c-1.9,0-3.8-0.9-5.5-2.5c-2.7-2.5-4.8-6.9-5.7-12
		C1221.5,1485,1221.7,1478.7,1223.2,1472.2z M1288.6,690.8c-0.5,0.1-0.9,0.1-1.4,0.1c-9.3,0-20.2-17.8-24.9-40.5
		c-2.4-11.8-2.9-23.2-1.3-32.2c1.6-8.9,5-14.3,9.6-15.3c0.5-0.1,0.9-0.1,1.4-0.1c9.3,0,20.2,17.8,24.9,40.5
		c2.4,11.8,2.9,23.2,1.3,32.2C1296.6,684.4,1293.2,689.8,1288.6,690.8z M1263.2,986.8c6.6,7.2,10.1,23.3,8.7,39.9
		c-2,24.2-12.7,40.4-21.5,40.4c-0.4,0-0.8,0-1.3-0.1c-9.2-1.6-14.4-19.8-12.5-43.3c2-23.4,10.2-40.5,19.6-40.5l0-0.2c0,0,0,0,0,0
		v0.2C1258.7,983.2,1261,984.4,1263.2,986.8z M1185,470.1c9.2,0,18.4,14.4,20.9,32.8c1.9,13.6-0.2,26.3-5.5,33
		c-2.1,2.7-4.5,4.2-7.2,4.5c-0.3,0-0.7,0.1-1,0.1c-9.4,0-18.8-14.4-21.3-32.7c-2.6-19.1,3.1-35.9,12.7-37.5
		C1184,470.2,1184.5,470.1,1185,470.1z M1158,1778.6c0.2-3.3,1-6.9,2.5-10.5c1.4-3.5,3.6-7.3,6.2-10.6c5.4-6.9,9.9-9.6,13.6-11.4
		l0.5-0.2c3.9-1.7,7.9-3.5,12.2-3.5c0.4,0,0.7,0,1.1,0c2.6,0.3,4.7,1.4,6.3,3.5c1.8,2.3,2.9,5.7,3,9.4c0.4,7.3-3.1,16.6-8.8,23.7
		c-2.3,3-4.6,5.4-7.6,7.8c-2.6,2.1-5.3,3.9-8,5.1c-3.1,1.4-6.1,2.2-8.8,2.2c-2.3,0-4.4-0.5-6.1-1.6
		C1159.8,1790.3,1157.6,1785.2,1158,1778.6z M1209.3,1223.7c-3.1,17.8-13,31.7-22.5,31.7c-0.6,0-1.3-0.1-1.9-0.2
		c-9.2-2-13.8-18.4-10.5-37.5c1.5-8.9,4.4-16.8,8.3-22.8c3.9-6,8.3-9.2,12.8-9.2c0.1,0,0.2,0,0.3,0c4.8,0.2,9.1,4.3,11.7,11.3
		C1210.3,1204.3,1210.9,1214,1209.3,1223.7z M1171.1,763.2c0.7-0.4,1.5-0.6,2.4-0.6c1.8,0,3.7,0.9,5.4,2.5c3.4,3.1,5.5,9.1,6.4,12.4
		c2.8,9,3.7,21.5,2.6,35.2c-1,11.6-2.9,22.6-5.6,31.8c-2.9,9.4-6,14.1-10.2,15.2c-0.5,0.1-1,0.2-1.5,0.2c-4.6,0-9.6-5-13.1-12.9
		c-4.2-9.3-6.1-23.1-4.9-37c1.3-15.6,5-26.8,7.8-33.5c1.8-4,3.5-6.2,5.2-8.2c0.3-0.3,0.5-0.6,0.8-0.9
		C1167.9,765.7,1169.3,764.1,1171.1,763.2z M1148,1588.8c0.2,0,0.5,0,0.7,0c2.9,0.2,5.7,1.9,8,4.8c5.2,6.8,7.2,19,4.9,31.2
		c-3,16.3-12.9,29.5-22.2,29.5c-0.9,0-1.8-0.1-2.6-0.4c-9-2.7-13.2-17.6-9.9-35.5C1130,1601.3,1138.9,1588.8,1148,1588.8z
		 M1519.7,700.4c-3,23.4-10.1,41.4-17.9,45.9c-1.3,0.7-2.6,1.1-3.8,1.1l-0.2,0c-0.3,0-0.6-0.1-0.9-0.2l-0.2-0.1
		c-8.6-1.9-15.6-23.5-12-51.3c3.5-27.5,15.7-46.6,24.4-46.6c0.5,0,0.9,0.1,1.4,0.2C1519.4,651.5,1523.3,672.4,1519.7,700.4z
		 M1434.4,545c-1.5,0.9-3.2,1.3-5.1,1.3c-3.3,0-7-1.4-10.8-4c-6.3-4.3-12.1-11.8-16-20.5c-3.9-8.7-5.6-18-4.6-25.6
		c0.9-7.2,4-12.2,8.6-13.6c0.9-0.3,1.9-0.4,2.9-0.4c8.4,0,18.6,10.1,25.4,25.1C1442.4,524.6,1442.3,540.1,1434.4,545z
		 M1491.7,1279.1c7.6,5.5,4.1,24.5-8.2,44.3c-10.4,16.6-23.3,27.8-32.1,27.8c-1.5,0-2.8-0.3-4-1c-2.1-1.1-3.6-3.3-4.5-6.4
		c-2.5-9.3,1.8-25,10.6-39.2c9.8-15.7,23.7-27,33.2-27C1488.7,1277.6,1490.4,1278.1,1491.7,1279.1z M1409.1,1106.6
		c6.8-7.8,14.1-14.1,21.8-18.6c5.2-3,9.2-4.3,12.5-4.3c1.5,0,2.8,0.3,4,0.8c4.5,2,6.1,9,4.1,17.5c-1.9,8.4-7.6,18.4-15.5,27.6
		c-3.4,4-6.9,7.6-10.4,10.8c-3.1,2.9-6.1,5.3-9,7.5c-5.2,3.7-9.4,6.1-13.5,6.1c-0.7,0-1.4-0.1-2-0.2c-4.1-0.9-8-6.5-6.9-16.9
		c0.5-4.6,2.1-9.7,4.8-15.4C1401.7,1116.4,1405.1,1111.3,1409.1,1106.6z M1442.9,880.6c-2.2,19.4-11.8,35.2-21.4,35.2
		c-0.5,0-1,0-1.4-0.1c-9.4-1.7-14.7-18.5-12.3-39.1c2.3-20.1,11.1-35.3,20.4-35.3c0.2,0,0.3,0,0.5,0c2.6,0.1,5.2,1.6,7.4,4.2
		C1441.9,852.3,1444.5,866.1,1442.9,880.6z M1522.5,439.3c6,0,16.3,4.6,28.2,12.5c6.1,4.1,12.6,9.1,19.3,14.9
		c12.8,11.1,25.5,24.4,36.7,38.5c9.8,12.4,18.6,25.6,26.1,39.1c5.5,9.9,9.9,19.2,13,27.7c6.8,18.2,8,31.7,3.1,34.3
		c-0.6,0.3-1.4,0.5-2.2,0.5c-5,0-13.4-6.4-25.7-19.7c-1.6-1.8-3.4-3.7-5.3-5.9c-4.1-4.6-8.7-10-14-16.4l-0.2-0.2l-0.2,0.2
		c-1.1,1-2.3,1.6-3.6,1.8c-0.6,0.1-1.1,0.2-1.7,0.2c-3.8,0-8.2-2.4-13.2-7.4c-5.5-5.5-10.8-13-15.3-21.7c-4.7-9-7.6-18.2-8.3-26
		l0-0.1l0-0.1c-7.9-10.1-14.2-18.5-19.5-25.8c-3.7-5-6.8-9.4-9.4-13.4c-11.7-17.4-15.7-27.7-12.3-31.5
		C1518.9,439.8,1520.4,439.3,1522.5,439.3z M1554.2,1022.8c1.9-4.9,4.4-9.9,7.7-15.2c10-15.8,23.4-26.8,32.5-26.8
		c1.8,0,3.3,0.4,4.6,1.3c4,2.5,5.4,8.5,4.1,16.8c-1.4,8.4-5.4,18.2-11.3,27.6c-6.8,10.5-13.2,16.7-17.5,20.5
		c-5.1,4.2-9.3,7.4-14,7.4c-0.2,0-0.3,0-0.5,0c-2.5-0.2-4.7-1.7-6.2-4.3c-1.8-2.9-2.7-7-2.6-11.7
		C1551,1033.7,1552.2,1028.3,1554.2,1022.8z M1642.5,733.7c2.7-10.3,6.5-19.6,11-26.8c4.6-7.2,8.9-10.6,13.3-10.6l0.2,0
		c4.9,0.1,9.1,5.5,11.1,14c2.1,8.8,1.6,20.6-1.5,32.2c-3.5,13.5-8.6,22.3-12.2,27.4c-4.7,6.5-9.1,9.7-13.3,9.7c-0.3,0-0.7,0-1-0.1
		c-4.8-0.6-8.5-6.1-10-14.7C1638.7,756.4,1639.5,745,1642.5,733.7z M686.4,494.3c5.4-20.3,17-31.3,25.2-31.3c1,0,1.9,0.1,2.8,0.4
		c8.8,2.9,11.5,19.9,6.3,39.7c-2.3,9-5.7,16.8-9.8,22.7c-1.9,2.7-4,5.1-6.4,7.3c-1.7,1.4-3.6,2.2-5.4,2.2c-0.6,0-1.2-0.1-1.8-0.3
		c-2.1-0.6-4.1-1.8-6.3-3.7c-1.9-1.5-3.6-4.5-4.8-8.4C683.6,515,683.7,504.3,686.4,494.3z M754.4,844.1c-3.2,21-13.1,37.5-22.5,37.5
		c-0.3,0-0.7,0-1-0.1c-2.4-0.3-4.6-1.7-6.4-4.1c-5.5-7.2-7.5-22.4-5-38.5c3.2-21,12.9-37.5,22.2-37.5c0.4,0,0.9,0,1.3,0.1
		C752.5,803.1,757.7,822.3,754.4,844.1z M739,1530.8c1.4-0.9,3.1-1.4,5-1.4c9.1,0,21,10,28.9,24.2c6.8,12.2,9.6,25.6,6.9,34.1
		c-1,3.3-2.8,5.6-5.2,6.8c-1.3,0.6-2.7,0.9-4.2,0.9c-8.7,0-20.1-9.9-28.3-24.6C732.4,1553.5,731,1535.9,739,1530.8z M923.7,456.4
		c0.2,0,0.4,0,0.6,0c9.6,0,18.4,16.8,20.2,38.3c1.8,21.9-4.7,40.3-14.4,41.1c-0.2,0-0.4,0-0.6,0c-9.6,0-18.4-16.8-20.2-38.3
		c-0.9-10.6,0.2-20.8,2.9-28.5C915,461.2,919.1,456.8,923.7,456.4z M970.9,1247.5c-2.9,7.6-7.3,12-12.2,12c-4.5,0-8.9-3.8-12.7-11
		c-3.5-6.7-6.2-15.6-7.7-25.6c-1.5-10.1-1.6-19.3-0.3-26.8c1.5-7.9,4.5-12.9,8.8-14.2c0.8-0.3,1.6-0.4,2.4-0.4
		c4.1,0,8.6,2.9,12.8,8.2c5.4,6.9,9.5,17,11.2,27.9C975,1228.4,974.1,1239.3,970.9,1247.5z M951.1,1593.4c1.1-0.4,2.3-0.6,3.5-0.6
		c3.6,0,7.3,1.6,10.8,4.7c4.8,4.3,8.5,11.1,10.1,18.7c1.6,7.6,1.1,15.3-1.6,21.2c-2.5,5.7-6.6,9.2-11.4,9.7c-0.4,0-0.7,0-1.1,0
		c-8.9,0-17.6-9.9-20.6-23.5C937.9,1609.2,942.2,1596.5,951.1,1593.4z M961.8,764.2c0.9,0,1.8,0.2,2.6,0.5c8.7,3.2,10.7,21.5,5,44.5
		c-5.5,21.7-15.5,36.9-24.4,36.9c-0.4,0-0.7,0-1.1-0.1c-2.4-0.3-4.6-1.9-6.4-4.6c-4.6-6.8-7.2-22.1-2.4-40.9
		C940.7,778.1,953.3,764.2,961.8,764.2z M894.4,1708.7c7.8,2.9,15.9,9.5,22.1,18.2c8,11,12,23.8,10,32.6c-0.8,3.5-2.5,6.1-4.9,7.5
		c-1.5,0.9-3.2,1.3-5.2,1.3c-8.2,0-19.4-8.1-28.6-20.5c-4.6-6.3-8-12.9-9.9-19c-2.7-8.7-2-15.4,1.9-19c1.7-1.6,4.1-2.4,7-2.4
		C889.2,1707.2,891.7,1707.7,894.4,1708.7z M812.2,1099.4c-0.5,0.1-1,0.2-1.6,0.2c-9.2,0-19.8-17.4-24.2-39.7
		c-3.5-17.8-2.3-34.4,3.1-42.2c1.6-2.4,3.6-3.8,5.8-4.1c0.4-0.1,0.8-0.1,1.2-0.1c9.4,0,20.2,17.4,24.6,39.6
		C825.7,1076.5,821.7,1097.3,812.2,1099.4z M791.3,639.7c4.8-28.1,17.4-47,26.2-47c0.5,0,1,0.1,1.5,0.2c8.9,2.3,11.9,24.5,7.1,52.8
		c-4.8,27.9-14.6,47.5-23.7,47.5c-0.2,0-0.4,0-0.6,0c-2-0.2-3.9-1.4-5.6-3.6C789.7,681.1,787.7,660.6,791.3,639.7z M860.7,1442.6
		c1.3,5.1,2.1,10.6,2.5,16.2c1.1,16.3-2.1,31.6-7.9,38.8c-2.2,2.6-4.5,4.1-7,4.2c-0.2,0-0.3,0-0.5,0c-3.5,0-7-2.4-10.2-7.1
		c-5.2-7.6-8.8-20.2-9.7-33.7c-0.4-5.7-0.2-11.2,0.3-16.4c0.6-5.6,1.8-10.6,3.3-14.5c2.8-7.4,7.5-12.1,12.1-12.1
		c0.5,0,1,0.1,1.5,0.2c4.2,1,7.5,4.7,11.3,12.3C858.1,1434.2,859.5,1438.2,860.7,1442.6z M459.3,742.6c3.6-19.8,13.2-34.7,22.4-34.7
		c0.4,0,0.7,0,1.1,0.1c2.6,0.3,4.9,1.9,6.9,4.6c5.4,7.4,7.1,21.7,4.4,36.4c-3.5,19.4-13.7,34.6-23.2,34.6c-0.6,0-1.2-0.1-1.9-0.2
		C459.8,781.2,455.6,763.3,459.3,742.6z M498.1,563.1c5.2-10.8,11.2-21.2,18-31.1c2.1-3.1,4-5.7,5.9-8.2
		c5.5-7.3,11.8-14.5,18.3-21.1c3.3-3.4,6.6-6.6,9.9-9.7c3.3-3.2,6.5-6.3,9.5-9.3c7.2-7.4,13.9-15.3,20.1-22.8
		c1.7-2.1,3.5-4.2,5.2-6.3c2.6-3.2,5.2-6.3,7.8-9.4c12.6-15.1,22.6-25.5,31.7-33c10-8.2,19.8-14.1,27.7-16.6
		c3.3-1.1,6.2-1.6,8.5-1.6c2.5,0,4.2,0.7,5,1.9c1.3,2.2,0.1,5.9-4.1,12.4c-1.5,2.3-3.3,4.9-5.3,7.9c-3.1,4.5-6.5,9.7-10.4,15.6
		c-3.6,5.4-7.5,11.7-11.6,18.4c-3.4,5.6-7,11.3-10.9,17.5c-3,4.7-6.7,10.3-10.7,16.1c-7.8,11.1-15.5,20.5-23.6,28.9
		c-1.6,1.6-3.2,3.2-5.1,5.1l-0.1,0.1l0,0.1c-0.6,2.5-1.3,5.1-2.1,7.6c-6.3,19.3-17.3,33.4-26.1,33.4c-0.7,0-1.4-0.1-2.1-0.3
		c-2.5-0.6-4.6-2.6-6.3-5.8l-0.2-0.3l-0.2,0.3c-4.3,4.5-8.8,9.3-13.7,14.7l-2.8,3.1c-2.8,3.1-5.6,6.1-8.2,8.9
		c-16.2,17.7-26.6,26.3-31.8,26.3c-0.7,0-1.4-0.2-1.9-0.5C483.7,602.1,487.5,585.6,498.1,563.1z M580.9,672.2
		c3.6-24.5,13.8-43.7,23.1-43.7c0.4,0,0.8,0,1.2,0.1c9.6,1.7,14.4,23.6,10.7,48.8c-3.6,24.5-13.9,43.6-23.5,43.6c-0.3,0-0.5,0-0.8,0
		c-2.1-0.2-4-1.5-5.7-3.7C580.1,709.7,578.1,691.5,580.9,672.2z M613.5,1284.7c1.8-3.1,4.2-5,7-5.7c0.8-0.2,1.6-0.3,2.4-0.3
		c9,0,19,12.1,23.2,28.2c4.6,17.8,0.8,34.3-8.7,36.8c-0.8,0.2-1.6,0.3-2.5,0.3c-9,0-18.9-12.1-23.1-28.2
		C608.7,1303.7,609.3,1291.8,613.5,1284.7z M640.9,1102.2c1.3-0.6,2.8-1,4.4-1c8.8,0,19,9.7,24.3,23.1c4.2,10.6,4.7,21.7,1.3,29
		c-1.6,3.5-4,5.8-7,6.7c-1.1,0.4-2.2,0.5-3.4,0.5c-8.6,0-18.3-9.6-23.8-23.3C630.5,1121.7,632.4,1106.2,640.9,1102.2z M489.7,993.3
		c1.8-2.2,3.8-3.4,6-3.5c0.2,0,0.3,0,0.5,0c9.4,0,18.6,19.4,21.6,45.1c3,26.4-1.9,47.4-11.3,48.9c-0.3,0.1-0.7,0.1-1,0.1
		c-9.7,0-19.9-20.2-22.8-45C480.4,1019.4,483.2,1001.1,489.7,993.3z M595.4,925c-9.2-1.8-14.4-18.7-12.1-39.4
		c2.3-20.4,11-35.8,20.2-35.8l0.3,0c2.6,0.1,5.2,1.5,7.4,4.1c6,7,8.9,21,7.2,35.6c-2.2,19.6-11.8,35.6-21.5,35.6
		C596.4,925.2,595.9,925.1,595.4,925z"/>
	<path class="st2" d="M1485.6,280.8c0-0.1-0.1-0.2-0.3-0.2l-9.4-4.9c-10.7-5.1-21.8-9.5-32.9-13.1c-7.3-2.3-14.6-4.3-21.6-5.9
		c-2.9-0.7-5.8-1.2-8.6-1.6c-1.6-0.3-3.3-0.5-4.9-0.8l-6.6-1.2l-6.6-0.7c-1.7-0.2-3.4-0.3-5-0.5c-2.6-0.3-5.3-0.5-7.9-0.7l-12.5-0.3
		c-0.7,0-1.5,0-2.2-0.1c-1,0-2-0.1-3-0.1c-0.3,0-0.6,0-0.9,0l-6,0.3l-11.7,0.5l-11.2,1.3c-1.2,0.2-2.4,0.3-3.6,0.4
		c-2.5,0.3-4.8,0.5-7.1,1c-12.5,2.1-24.9,5.1-36.9,8.8l-14.8,5l-12.2,5.1l-5.3,2.1l-4.4,2.1c-2.8,1.3-5.2,2.4-7.1,3.2
		c-2.9,1.1-4.8,1.7-5.8,1.7c-0.3,0-0.5-0.1-0.6-0.2l-0.1-0.2l-0.2,0.1c0,0-0.1,0-0.1,0c-1.3,0-4.8-4.6-8.4-14.4
		c-1.3-3.7-2.5-7.8-3.5-12.3c-2.3-10.6-3.1-21.9-2.4-33.6c1.2-21.9,8.1-45.6,19.4-66.9c6.2-11.8,13.9-23.4,22.8-34.6l3.4-4.2l1-1.3
		l-0.1,0l0.1,0l0-0.1c0-0.1,0-0.2,0-0.3c0-0.2-0.2-0.3-0.3-0.3c-0.1,0-0.1,0-0.2,0c0,0-0.1,0-0.1,0c0,0-0.1,0-0.2,0
		c-2.8,0.8-5.6,1.9-7.8,2.8c-0.9,0.4-1.8,0.7-2.7,1c-1.1,0.5-2.3,0.9-3.5,1.4c-2.2,0.8-4.5,1.7-6.6,2.8c-13.9,6-26.3,13.6-36.6,20.2
		c-19.8,13.4-37.7,29.4-53.1,47.4c-14.7,17.3-24.1,32.5-30.4,42.5c-4.5,7.1-7.4,11.9-8.9,11.9c-0.1,0-0.2,0-0.2,0l-0.1,0l-0.1,0
		c-1.2,0-3.9-4.7-7.7-18.1c-2.5-8.4-7.1-26.5-10.4-52.5c-0.6-4.6-1.2-9.8-1.7-15.2c0.7-10.5,0.7-22.3,0-34.3
		c-0.5-8-1.3-15.9-2.4-23.6l0-1.7c0-1.6,0-3.1,0.1-4.7c0.4-15.7,1.5-31.6,3.2-47l1.1-9.2c0.1-0.6,0.1-0.6,0-0.7l-0.1-0.1h-0.1
		c0,0-0.1,0-0.1,0l-0.1,0l-0.1,0l-9.1,1l-25.1,2.8c-3.3,0.2-5.5,0.9-6,1.1c-0.1,0-0.2,0.1-0.3,0.4c-0.2,0.4-0.6,1.5-0.9,3.1
		c-0.2,1.2-0.5,2.9-0.7,4.5l-1,6.7c-0.4,2.5-0.7,5-1,7.4c-0.2,1.3-0.3,2.7-0.5,4c-1,8.2-1.8,15.5-2.4,22.1
		c-2.3,24.4-3.3,49.6-3.2,77.2c0.2,15.4,0.6,28.9,1,39.7c0.6,19.2,1,31.9-1,32.3l-0.3,0l0.1,0.3c0,0.7-5.1,3.8-16.6,5.3
		c-3.1,0.4-6.3,0.5-9.6,0.5c-3.9,0-7.8-0.3-11.7-0.7c-8.5-1-17.9-3.3-27.9-6.7c-9.4-3.2-20-7.7-32.4-13.7
		c-12-5.8-24.2-12.2-36.2-18.9c-12.9-7.2-26.2-15.2-39.8-23.9l-10.4-6.8l-2.4-1.6l-1.3-0.7l-2.5-1.4l-0.1-0.1l-0.1,0
		c-0.1-0.1-0.2-0.1-0.3-0.1l-0.1,0l-0.1,0.1l-0.1,0.2l0.4,1c0.2,0.6,0.5,1.1,0.7,1.5c0.2,0.5,0.5,0.9,0.7,1.2l0.3,0.5l0.1,0.2
		l0.1,0.1l0,0c0,0,0.9,1.5,0.9,1.5c8.5,13.6,19.7,26.4,33.1,37.9c12.2,10.5,26.9,20,45.2,29c8.4,4.2,17.1,8.1,26.2,12.2
		c8.8,4,18,8.1,27.1,12.6l22.4,11L996,290.8c-4.6,2.7-9.3,4.6-14,5.7c-3.8,0.9-7.8,1.4-11.9,1.4c-1,0-2.1,0-3.1-0.1
		c-9.2-0.6-17.1-3.1-24-5.3l-1.3-0.4c-14.5-4.6-28.6-10-42.2-15.3l-0.7-0.3c-8.2-3.2-14.5-5.5-20.3-7.6c-4.2-1.5-8.5-2.8-12.6-4
		c-2.5-0.7-4.9-1.5-7.3-2.2c-4.2-1.3-8.5-2.3-12.6-3.3c-2.4-0.6-4.8-1.1-7.2-1.7c-4.2-1-8.4-1.7-12.5-2.5c-2.3-0.4-4.7-0.8-7.1-1.3
		c-7.9-1.3-15.8-2.3-24.5-3c-3.8-0.6-7.5-0.9-11-1l-0.2,0c-0.3,0-0.6,0-0.9,0c-0.3,0-0.6,0-0.8,0c-6.7-0.4-13.5-0.6-20.3-0.6
		c-5.7,0-11.4,0.1-17.1,0.4c-23.4,1.1-45.3,4-64.9,8.6c-0.9,0.2-1.8,0.4-2.7,0.6c-1.5,0.3-3.1,0.6-4.6,1l-7,1.9
		c-1.7,0.5-3.4,0.9-5.1,1.4c-2.9,0.8-5.6,1.5-8.3,2.3l-18.6,6.1l-5.7,2.2l-3.3,1.2c-6.3,2.4-12.2,4.6-17.5,7.2
		c-1.6,0.7-3.1,1.4-4.7,2.1l-0.4,0.2l0.1,0.5l0.9-0.2c0.7-0.1,1.5-0.3,2.3-0.4c7.5-1.2,15.2-1.8,22.9-1.8c10.2,0,20.4,1,30.3,3.1
		l1.3,0.3c1.1,0.2,2.2,0.4,3.3,0.7c21.7,5,43.4,16.5,63.6,28.3l2.5,1.4c9.4,5.4,18.4,10.6,27.1,15c9.1,4.7,18.3,8.6,28.1,11.9
		c16,5.4,33.2,9.1,50.9,10.9c13.6,1.3,25.1,1.5,33.5,1.6c9.5,0.1,15.7,0.2,16.1,2c0.2,1.1-2.9,3.7-12.4,6.8c-0.1,0-0.9,0.3-0.9,0.3
		c-12.5,5.3-24,11.3-35,18.6c-6.5,4.2-13.4,9.5-21.7,16.8c-6.6,6.3-14.4,14-21.4,23.3c-7.7,10.3-13.7,20-18.3,29.8
		c-0.5,0.9-0.8,1.8-1.2,2.7c-0.2,0.5-0.4,1-0.6,1.5l-0.8,2l0,0.2c0,0.2,0,0.4,0,0.6c0,0,0,0.1,0,0.1c0,0.1,0.1,0.4,0.3,0.4
		c0.1,0,0.3-0.1,0.3-0.2l0.4-0.3l1.4-0.6l3.2-1.1c8.8-2.9,18.7-5.3,30-7.3c11.8-2,23.2-3.3,34.2-4.6c5.9-0.7,11.4-1.3,16.9-2
		c15.7-2.1,31-5,45.4-8.6c24.5-6.1,48.7-14.7,73.9-26.4c20-9.5,35.5-18.3,46.7-24.8c9.5-5.4,15.8-9,18.1-9c0.3,0,0.5,0.1,0.7,0.2
		l0.1,0.1l0.2,0c0,0,0.1,0,0.1,0c2.3,0,7.9,10.2,10.5,29.6c1.5,12,1.3,24-0.5,35.8c-0.4,3-1,6.2-1.9,10.5c-0.2,1.2-0.5,2.4-0.8,3.6
		c-0.2,0.6-0.3,1.2-0.5,1.8l-0.1,0.5c-0.1,0.3-0.2,0.7-0.2,0.8l-0.1,0.8l0.1-0.2c0.1,0.5,0.2,0.9,0.6,0.9l0.1,0l0.1,0
		c0.4-0.2,1-0.7,1.1-0.9l0-0.1l0.1,0l1.3-0.6l10.8-5.2c16.9-8.2,34.1-17,52.7-26.9c16-8.4,28.8-17.1,37.8-25.8
		c9.8-9.4,14.4-18.4,16.6-24.3c1.2-3.5,2.1-6.2,2.6-8.1c0.8-2.4,1.6-3,2-3.1l0.2,0l0.1-0.1c0.1-0.2,0.4-0.5,2-0.5
		c2.4,0,6.7,0.6,12.7,1.5c3.4,0.5,7.3,1.1,11.7,1.7c12.4,1.7,24.2,2.5,36.1,2.5c11.5,0,23.1-0.8,34.4-2.3
		c16.3-2.2,32.1-6.1,46.8-11.4c14.6-5.1,30.5-12.8,50-24.3c4.9-2.8,9.8-5.8,15-8.9c12.9-7.7,26.2-15.6,40.9-22.9
		c10.9-5.4,21.9-9.9,32.8-13.3c7-2.2,12.5-3.6,17.9-4.6l1.2-0.2c1.1-0.2,2.3-0.5,3.4-0.6l3.5-0.5c0.1,0,0.1,0,0.2,0l0.3,0l0-0.2
		C1485.7,281,1485.6,280.9,1485.6,280.8z"/>
</g>
</svg>
